<svg width="249" height="80" viewBox="0 0 249 80" fill="none" xmlns="http://www.w3.org/2000/svg">
<path d="M93.9423 35.9106H88.4055C88.2476 35.0026 87.9565 34.1983 87.5321 33.4975C87.1077 32.7869 86.5797 32.1849 85.948 31.6914C85.3164 31.1979 84.5959 30.8278 83.7866 30.5811C82.9872 30.3245 82.1236 30.1962 81.1959 30.1962C79.5476 30.1962 78.087 30.6107 76.8138 31.4397C75.5406 32.2589 74.5438 33.463 73.8233 35.052C73.1029 36.6311 72.7426 38.5606 72.7426 40.8404C72.7426 43.1598 73.1029 45.1139 73.8233 46.7029C74.5537 48.282 75.5505 49.4763 76.8138 50.2856C78.087 51.085 79.5427 51.4847 81.1811 51.4847C82.089 51.4847 82.9378 51.3663 83.7274 51.1294C84.5268 50.8827 85.2424 50.5224 85.874 50.0487C86.5155 49.575 87.0534 48.9927 87.4877 48.3018C87.9318 47.6109 88.2377 46.8214 88.4055 45.9331L93.9423 45.9627C93.7351 47.4037 93.286 48.7558 92.5951 50.0191C91.9141 51.2824 91.0209 52.3976 89.9156 53.3648C88.8102 54.3222 87.5173 55.0723 86.0368 55.6151C84.5564 56.148 82.9131 56.4145 81.107 56.4145C78.4423 56.4145 76.0637 55.7977 73.9714 54.564C71.879 53.3303 70.2308 51.5489 69.0268 49.2197C67.8227 46.8904 67.2206 44.0974 67.2206 40.8404C67.2206 37.5736 67.8276 34.7806 69.0416 32.4612C70.2555 30.132 71.9087 28.3506 74.001 27.1169C76.0933 25.8832 78.462 25.2664 81.107 25.2664C82.7947 25.2664 84.364 25.5032 85.8148 25.977C87.2656 26.4507 88.5585 27.1465 89.6935 28.0644C90.8285 28.9724 91.7612 30.0876 92.4915 31.4101C93.2317 32.7228 93.7153 34.2229 93.9423 35.9106ZM113.229 46.4365V33.2607H118.588V56H113.391V51.9584H113.155C112.641 53.2316 111.797 54.2728 110.623 55.0821C109.458 55.8914 108.022 56.2961 106.315 56.2961C104.825 56.2961 103.507 55.9655 102.362 55.3042C101.227 54.6331 100.339 53.6609 99.6975 52.3878C99.056 51.1047 98.7352 49.5552 98.7352 47.7392V33.2607H104.094V46.9102C104.094 48.3511 104.489 49.496 105.279 50.3448C106.068 51.1936 107.105 51.6179 108.388 51.6179C109.177 51.6179 109.942 51.4255 110.682 51.0406C111.422 50.6557 112.029 50.0832 112.503 49.3233C112.987 48.5535 113.229 47.5912 113.229 46.4365ZM124.099 56V33.2607H129.295V37.0506H129.532C129.946 35.7379 130.657 34.7263 131.664 34.0157C132.68 33.2952 133.84 32.935 135.143 32.935C135.439 32.935 135.769 32.9498 136.134 32.9794C136.509 32.9991 136.82 33.0337 137.067 33.083V38.0128C136.84 37.9339 136.48 37.8648 135.986 37.8056C135.503 37.7365 135.034 37.7019 134.58 37.7019C133.603 37.7019 132.725 37.9141 131.945 38.3385C131.175 38.753 130.568 39.3304 130.124 40.0706C129.68 40.8108 129.458 41.6645 129.458 42.6318V56H124.099ZM146.764 56.4589C145.323 56.4589 144.025 56.2023 142.87 55.6891C141.726 55.166 140.818 54.3962 140.146 53.3796C139.485 52.3631 139.155 51.1097 139.155 49.6194C139.155 48.3363 139.391 47.2754 139.865 46.4365C140.339 45.5975 140.985 44.9264 141.804 44.4231C142.624 43.9197 143.546 43.5398 144.573 43.2831C145.609 43.0167 146.68 42.8242 147.785 42.7058C149.118 42.5676 150.198 42.4442 151.028 42.3357C151.857 42.2172 152.459 42.0396 152.834 41.8027C153.219 41.556 153.411 41.176 153.411 40.6628V40.574C153.411 39.4587 153.08 38.5951 152.419 37.9832C151.758 37.3713 150.805 37.0654 149.562 37.0654C148.249 37.0654 147.208 37.3516 146.438 37.924C145.678 38.4964 145.165 39.1725 144.899 39.9522L139.895 39.2416C140.29 37.8599 140.941 36.7051 141.849 35.7774C142.757 34.8398 143.867 34.139 145.18 33.6752C146.492 33.2014 147.943 32.9646 149.532 32.9646C150.628 32.9646 151.718 33.0929 152.804 33.3495C153.89 33.6061 154.882 34.0305 155.78 34.6227C156.678 35.205 157.398 35.9995 157.941 37.0061C158.494 38.0128 158.77 39.2712 158.77 40.7812V56H153.618V52.8763H153.441C153.115 53.508 152.656 54.1001 152.064 54.6528C151.482 55.1956 150.746 55.6348 149.858 55.9704C148.98 56.2961 147.948 56.4589 146.764 56.4589ZM148.156 52.521C149.231 52.521 150.164 52.3088 150.954 51.8844C151.743 51.4502 152.35 50.8777 152.774 50.1671C153.209 49.4565 153.426 48.6818 153.426 47.8429V45.1633C153.258 45.3015 152.972 45.4298 152.567 45.5482C152.172 45.6666 151.728 45.7703 151.235 45.8591C150.741 45.9479 150.253 46.0269 149.769 46.096C149.286 46.165 148.866 46.2243 148.511 46.2736C147.711 46.3822 146.996 46.5598 146.364 46.8066C145.733 47.0533 145.234 47.3987 144.869 47.8429C144.504 48.2771 144.321 48.8397 144.321 49.5305C144.321 50.5175 144.681 51.2626 145.402 51.766C146.122 52.2693 147.04 52.521 148.156 52.521ZM164.159 56V33.2607H169.281V37.1246H169.548C170.021 35.8218 170.806 34.8052 171.902 34.0749C172.997 33.3347 174.305 32.9646 175.825 32.9646C177.364 32.9646 178.662 33.3396 179.718 34.0897C180.784 34.8299 181.534 35.8415 181.968 37.1246H182.205C182.709 35.8613 183.557 34.8546 184.752 34.1045C185.956 33.3446 187.382 32.9646 189.03 32.9646C191.122 32.9646 192.83 33.6258 194.152 34.9483C195.475 36.2709 196.136 38.2004 196.136 40.7368V56H190.762V41.5659C190.762 40.1545 190.387 39.1231 189.637 38.4718C188.887 37.8105 187.969 37.4799 186.883 37.4799C185.591 37.4799 184.579 37.8845 183.849 38.6938C183.128 39.4933 182.768 40.5345 182.768 41.8175V56H177.512V41.3438C177.512 40.1693 177.157 39.2317 176.446 38.531C175.746 37.8302 174.828 37.4799 173.693 37.4799C172.923 37.4799 172.222 37.6773 171.591 38.072C170.959 38.457 170.456 39.0047 170.081 39.7153C169.706 40.4161 169.518 41.2352 169.518 42.1728V56H164.159ZM208.116 56.4589C206.675 56.4589 205.378 56.2023 204.223 55.6891C203.078 55.166 202.17 54.3962 201.499 53.3796C200.838 52.3631 200.507 51.1097 200.507 49.6194C200.507 48.3363 200.744 47.2754 201.218 46.4365C201.691 45.5975 202.338 44.9264 203.157 44.4231C203.976 43.9197 204.899 43.5398 205.925 43.2831C206.962 43.0167 208.033 42.8242 209.138 42.7058C210.47 42.5676 211.551 42.4442 212.38 42.3357C213.209 42.2172 213.811 42.0396 214.186 41.8027C214.571 41.556 214.764 41.176 214.764 40.6628V40.574C214.764 39.4587 214.433 38.5951 213.772 37.9832C213.11 37.3713 212.158 37.0654 210.914 37.0654C209.602 37.0654 208.561 37.3516 207.791 37.924C207.031 38.4964 206.518 39.1725 206.251 39.9522L201.247 39.2416C201.642 37.8599 202.293 36.7051 203.201 35.7774C204.109 34.8398 205.22 34.139 206.532 33.6752C207.845 33.2014 209.296 32.9646 210.885 32.9646C211.98 32.9646 213.071 33.0929 214.157 33.3495C215.242 33.6061 216.234 34.0305 217.132 34.6227C218.03 35.205 218.751 35.9995 219.294 37.0061C219.846 38.0128 220.123 39.2712 220.123 40.7812V56H214.971V52.8763H214.793C214.467 53.508 214.009 54.1001 213.416 54.6528C212.834 55.1956 212.099 55.6348 211.211 55.9704C210.332 56.2961 209.301 56.4589 208.116 56.4589ZM209.508 52.521C210.584 52.521 211.516 52.3088 212.306 51.8844C213.096 51.4502 213.703 50.8777 214.127 50.1671C214.561 49.4565 214.778 48.6818 214.778 47.8429V45.1633C214.611 45.3015 214.324 45.4298 213.92 45.5482C213.525 45.6666 213.081 45.7703 212.587 45.8591C212.094 45.9479 211.605 46.0269 211.122 46.096C210.638 46.165 210.219 46.2243 209.863 46.2736C209.064 46.3822 208.348 46.5598 207.717 46.8066C207.085 47.0533 206.587 47.3987 206.221 47.8429C205.856 48.2771 205.674 48.8397 205.674 49.5305C205.674 50.5175 206.034 51.2626 206.754 51.766C207.475 52.2693 208.393 52.521 209.508 52.521ZM225.511 64.5273V33.2607H230.782V37.0209H231.093C231.369 36.4683 231.759 35.881 232.262 35.2592C232.766 34.6276 233.447 34.0897 234.305 33.6456C235.164 33.1916 236.259 32.9646 237.592 32.9646C239.348 32.9646 240.933 33.4136 242.344 34.3118C243.765 35.2 244.89 36.5176 245.719 38.2645C246.558 40.0015 246.978 42.1333 246.978 44.6599C246.978 47.1569 246.568 49.2789 245.749 51.0258C244.93 52.7727 243.814 54.1051 242.403 55.0229C240.992 55.9408 239.393 56.3997 237.607 56.3997C236.304 56.3997 235.223 56.1826 234.364 55.7483C233.506 55.3141 232.815 54.791 232.292 54.1791C231.779 53.5573 231.379 52.9701 231.093 52.4174H230.871V64.5273H225.511ZM230.767 44.6303C230.767 46.1009 230.974 47.3889 231.389 48.4942C231.813 49.5996 232.42 50.4632 233.21 51.085C234.009 51.6969 234.976 52.0029 236.111 52.0029C237.296 52.0029 238.288 51.687 239.087 51.0554C239.886 50.4139 240.488 49.5404 240.893 48.435C241.308 47.3198 241.515 46.0515 241.515 44.6303C241.515 43.219 241.313 41.9656 240.908 40.8701C240.503 39.7745 239.901 38.9159 239.102 38.2941C238.302 37.6723 237.305 37.3614 236.111 37.3614C234.966 37.3614 233.994 37.6625 233.195 38.2645C232.395 38.8665 231.788 39.7104 231.374 40.796C230.969 41.8817 230.767 43.1598 230.767 44.6303Z" fill="#83C0B9"/>
<circle cx="28.9964" cy="20.6468" r="20.6468" fill="#399B90"/>
<circle cx="36.2222" cy="11.8721" r="5.16169" fill="#D6FFD2"/>
<path d="M11.1941 39.3958C9.591 37.1063 6.43542 36.5499 4.14594 38.153C1.85645 39.7561 1.30004 42.9117 2.90315 45.2012L24.2048 75.623C25.8079 77.9125 28.9635 78.4689 31.253 76.8658C33.5424 75.2627 34.0989 72.1071 32.4957 69.8177L11.1941 39.3958Z" fill="#399B90"/>
<line x1="13.6468" y1="60.4854" x2="22.1968" y2="54.4986" stroke="#D6FFD2" stroke-width="0.353198"/>
<path fill-rule="evenodd" clip-rule="evenodd" d="M8.12475 40.325C9.49279 40.2855 10.3824 41.3896 10.5719 42.0599C10.6268 42.2543 10.5312 42.4281 10.3582 42.4482C10.1852 42.4682 10.0005 42.3269 9.9455 42.1325C9.85163 41.8005 9.28267 41.0034 8.27512 41.0324C8.09845 41.0375 7.92156 40.8833 7.88004 40.6879C7.83851 40.4926 7.94808 40.3301 8.12475 40.325Z" fill="#D6FFD2" stroke="white" stroke-width="0.163743" stroke-linecap="round" stroke-linejoin="round"/>
<path d="M50.9407 47.6892C52.9203 49.4613 53.0885 52.5026 51.3164 54.4822L31.9977 76.0627C30.2256 78.0422 27.1843 78.2104 25.2048 76.4383C23.2252 74.6662 23.057 71.6249 24.8291 69.6454L44.1478 48.0649C45.9199 46.0853 48.9612 45.9171 50.9407 47.6892Z" fill="#D6FFD2" stroke="#399B90" stroke-width="0.5"/>
</svg>
