<svg width="190" height="49" viewBox="0 0 190 49" fill="none" xmlns="http://www.w3.org/2000/svg">
<path d="M15.7167 10.925C14.6606 10.925 13.6461 11.1474 12.6734 11.5921C11.7284 12.0367 10.9642 12.676 10.3805 13.5097C9.63011 14.5937 8.99088 15.9555 8.46282 17.5952C7.96256 19.2072 7.71242 20.9998 7.71242 22.9731C7.71242 24.9464 7.92087 26.7946 8.33776 28.5177C8.75464 30.2408 9.33829 31.6861 10.0887 32.8533C10.7001 33.7983 11.52 34.4931 12.5483 34.9378C13.6044 35.3825 14.7856 35.6048 16.0919 35.6048C20.761 35.6048 23.4986 33.2563 24.3046 28.5594H27.8481C26.4863 35.4519 22.2618 38.8982 15.1747 38.8982C11.3393 38.8982 8.28217 37.7865 6.00318 35.5631C4.64135 34.2291 3.59913 32.5476 2.87653 30.5188C2.15392 28.4899 1.79262 26.2387 1.79262 23.7652C1.79262 20.9581 2.25119 18.4151 3.16835 16.1361C4.0855 13.8571 5.37785 12.0367 7.0454 10.6749C9.15764 8.92398 11.9508 8.04851 15.4248 8.04851C17.148 8.04851 18.5515 8.27085 19.6354 8.71553C20.7193 9.16021 21.7893 9.9523 22.8455 11.0918L23.6792 8.4654H27.2228V18.304H23.4291C23.04 15.8582 22.1645 14.0239 20.8027 12.801C19.4687 11.5504 17.7733 10.925 15.7167 10.925ZM38.197 15.9694V27.142C38.197 28.9207 38.2387 30.2547 38.3221 31.1441C38.4055 32.0335 38.5305 32.7422 38.6973 33.2702C38.9196 33.9372 39.2809 34.4514 39.7812 34.8127C40.3093 35.1462 40.8373 35.313 41.3654 35.313C42.1158 35.313 42.7967 35.174 43.4081 34.8961C44.0196 34.6182 44.5893 34.243 45.1174 33.7705C46.2569 32.7422 46.8822 31.1441 46.9934 28.9763V19.096L43.3664 18.304V15.9694H52.2878V35.3547L55.4979 36.1468V38.4813L47.7854 38.8982L47.3269 34.3124H47.1601C46.3541 35.7299 45.2563 36.8555 43.8667 37.6892C42.4771 38.4952 40.9902 38.8982 39.406 38.8982C38.3499 38.8982 37.3771 38.7037 36.4878 38.3146C35.6262 37.8977 34.9453 37.3418 34.445 36.647C33.917 35.8688 33.5279 34.771 33.2777 33.3536C33.0276 31.9362 32.9025 30.0463 32.9025 27.6839V19.096L30.1094 18.304V15.9694H38.197ZM70.0616 19.0127C69.7559 19.0127 69.4085 19.2072 69.0194 19.5963C68.6303 19.9576 68.269 20.3884 67.9355 20.8887C67.6297 21.3889 67.4074 21.8336 67.2684 22.2227C66.9349 23.1676 66.6431 24.1404 66.393 25.1409C66.1428 26.1414 66.0178 27.3643 66.0178 28.8095V35.3547L70.5202 36.1468V38.4813H57.5133V36.1468L60.7233 35.3547V18.4707L57.5133 17.6786V15.9694H64.7671L65.6843 21.4723H65.851C66.4902 19.5824 67.3518 18.1233 68.4357 17.095C69.5196 16.0667 70.7147 15.5525 72.021 15.5525C73.1049 15.5525 74.0081 15.8999 74.7307 16.5947C75.4533 17.2617 75.8146 18.165 75.8146 19.3045C75.8146 20.1383 75.5645 20.9026 75.0642 21.5974C74.564 22.2644 73.8553 22.5979 72.9381 22.5979C71.8264 22.5979 71.0343 22.3478 70.5618 21.8475C70.0894 21.3194 69.8531 20.7497 69.8531 20.1383C69.8531 19.9437 69.8531 19.8047 69.8531 19.7214C69.8809 19.6102 69.9504 19.374 70.0616 19.0127ZM77.3001 33.562C77.3001 31.2553 78.3562 29.4765 80.4685 28.2259C82.5807 26.9474 85.9019 25.9608 90.4321 25.266C90.3209 23.8764 90.1681 22.8063 89.9735 22.0559C89.779 21.3055 89.5288 20.6663 89.2231 20.1383C88.8618 19.499 88.4171 18.9849 87.8891 18.5958C87.361 18.2067 86.694 18.0121 85.888 18.0121C85.3044 18.0121 84.7624 18.1233 84.2621 18.3456C83.7897 18.568 83.4701 18.8737 83.3033 19.2628C83.6924 19.4573 83.9564 19.7631 84.0954 20.1799C84.2621 20.5968 84.3455 20.9581 84.3455 21.2639C84.3455 21.9587 84.0398 22.584 83.4284 23.1399C82.8169 23.6679 82.0804 23.9319 81.2189 23.9319C80.3573 23.9319 79.6764 23.654 79.1761 23.0982C78.6758 22.5145 78.4257 21.7919 78.4257 20.9303C78.4257 19.7909 78.8287 18.8181 79.6347 18.0121C80.4407 17.2061 81.469 16.5947 82.7197 16.1778C83.9703 15.7609 85.2349 15.5525 86.5133 15.5525C87.8196 15.5525 88.9869 15.747 90.0152 16.1361C91.0713 16.4974 91.919 16.956 92.5582 17.5119C94.7538 19.4573 95.8516 22.5423 95.8516 26.7668V32.1863C95.8516 33.5482 95.935 34.4931 96.1018 35.0212C96.2963 35.5492 96.6993 35.8132 97.3107 35.8132H99.1867V37.6892C96.6298 38.4952 94.6982 38.8982 93.392 38.8982C92.4748 38.8982 91.8634 38.5925 91.5577 37.9811C91.252 37.3696 91.0991 36.1606 91.0991 34.3541H90.9323C90.0708 35.7716 88.9313 36.8833 87.5139 37.6892C86.0965 38.4952 84.5679 38.8982 82.9281 38.8982C81.1772 38.8982 79.8014 38.4257 78.8009 37.4808C77.8004 36.5358 77.3001 35.2296 77.3001 33.562ZM85.4711 35.8549C86.0548 35.8549 86.694 35.6604 87.3888 35.2713C88.1114 34.8822 88.7367 34.3402 89.2648 33.6454C89.5705 33.2563 89.8623 32.7005 90.1403 31.9779C90.4182 31.2553 90.5572 30.3937 90.5572 29.3932C90.5572 29.0597 90.5433 28.6845 90.5155 28.2676C90.4877 27.8507 90.446 27.4616 90.3904 27.1003C88.4727 27.5172 86.958 27.9619 85.8463 28.4343C84.7624 28.9068 83.9842 29.4765 83.5117 30.1436C83.0671 30.7828 82.8447 31.5749 82.8447 32.5198C82.8447 33.7149 83.1227 34.5765 83.6785 35.1045C84.2344 35.6048 84.8319 35.8549 85.4711 35.8549ZM103.432 35.3547V19.096L100.222 18.304V15.9694H107.476L108.393 20.1383H108.56C109.366 18.7486 110.436 17.6369 111.77 16.8032C113.131 15.9694 114.577 15.5525 116.105 15.5525C117.245 15.5525 118.259 15.7748 119.148 16.2195C120.038 16.6364 120.691 17.1645 121.108 17.8037C121.553 18.4985 121.914 19.4157 122.192 20.5551C123.081 18.9988 124.235 17.7759 125.652 16.8865C127.069 15.9972 128.584 15.5525 130.196 15.5525C131.308 15.5525 132.308 15.7748 133.198 16.2195C134.087 16.6364 134.768 17.22 135.24 17.9704C135.574 18.4985 135.838 19.1794 136.032 20.0132C136.227 20.847 136.366 21.9309 136.449 23.2649C136.533 24.5712 136.574 26.2387 136.574 28.2676V35.3547L139.784 36.1468V38.4813H128.487V36.1468L131.28 35.3547V27.3087C131.28 25.5022 131.224 24.1682 131.113 23.3066C131.002 22.4172 130.835 21.7085 130.613 21.1805C130.335 20.5135 129.96 20.0549 129.487 19.8047C129.043 19.5268 128.57 19.3879 128.07 19.3879C127.375 19.3879 126.736 19.4851 126.152 19.6797C125.596 19.8742 125.054 20.2077 124.526 20.6802C123.915 21.2361 123.456 21.8892 123.151 22.6396C122.873 23.39 122.706 24.3349 122.65 25.4744V35.3547L125.443 36.1468V38.4813H114.563V36.1468L117.356 35.3547V27.3087C117.356 25.5022 117.3 24.1682 117.189 23.3066C117.078 22.4172 116.911 21.7085 116.689 21.1805C116.411 20.5135 116.036 20.0549 115.563 19.8047C115.119 19.5268 114.646 19.3879 114.146 19.3879C113.451 19.3879 112.812 19.4851 112.228 19.6797C111.672 19.8742 111.13 20.2077 110.602 20.6802C109.991 21.2361 109.532 21.8892 109.227 22.6396C108.949 23.39 108.782 24.3349 108.726 25.4744V35.3547L111.519 36.1468V38.4813H100.222V36.1468L103.432 35.3547ZM141.665 33.562C141.665 31.2553 142.721 29.4765 144.834 28.2259C146.946 26.9474 150.267 25.9608 154.797 25.266C154.686 23.8764 154.533 22.8063 154.339 22.0559C154.144 21.3055 153.894 20.6663 153.588 20.1383C153.227 19.499 152.782 18.9849 152.254 18.5958C151.726 18.2067 151.059 18.0121 150.253 18.0121C149.67 18.0121 149.128 18.1233 148.627 18.3456C148.155 18.568 147.835 18.8737 147.669 19.2628C148.058 19.4573 148.322 19.7631 148.461 20.1799C148.627 20.5968 148.711 20.9581 148.711 21.2639C148.711 21.9587 148.405 22.584 147.794 23.1399C147.182 23.6679 146.446 23.9319 145.584 23.9319C144.722 23.9319 144.042 23.654 143.541 23.0982C143.041 22.5145 142.791 21.7919 142.791 20.9303C142.791 19.7909 143.194 18.8181 144 18.0121C144.806 17.2061 145.834 16.5947 147.085 16.1778C148.336 15.7609 149.6 15.5525 150.879 15.5525C152.185 15.5525 153.352 15.747 154.38 16.1361C155.437 16.4974 156.284 16.956 156.923 17.5119C159.119 19.4573 160.217 22.5423 160.217 26.7668V32.1863C160.217 33.5482 160.3 34.4931 160.467 35.0212C160.662 35.5492 161.065 35.8132 161.676 35.8132H163.552V37.6892C160.995 38.4952 159.063 38.8982 157.757 38.8982C156.84 38.8982 156.229 38.5925 155.923 37.9811C155.617 37.3696 155.464 36.1606 155.464 34.3541H155.298C154.436 35.7716 153.296 36.8833 151.879 37.6892C150.462 38.4952 148.933 38.8982 147.293 38.8982C145.542 38.8982 144.167 38.4257 143.166 37.4808C142.166 36.5358 141.665 35.2296 141.665 33.562ZM149.836 35.8549C150.42 35.8549 151.059 35.6604 151.754 35.2713C152.477 34.8822 153.102 34.3402 153.63 33.6454C153.936 33.2563 154.228 32.7005 154.505 31.9779C154.783 31.2553 154.922 30.3937 154.922 29.3932C154.922 29.0597 154.908 28.6845 154.881 28.2676C154.853 27.8507 154.811 27.4616 154.756 27.1003C152.838 27.5172 151.323 27.9619 150.212 28.4343C149.128 28.9068 148.349 29.4765 147.877 30.1436C147.432 30.7828 147.21 31.5749 147.21 32.5198C147.21 33.7149 147.488 34.5765 148.044 35.1045C148.6 35.6048 149.197 35.8549 149.836 35.8549ZM172.591 42.8586L176.635 43.6507V45.9853H164.087V43.6507L167.297 42.8586V19.096L164.087 18.304V15.9694H171.341L171.966 19.1794C172.855 17.7898 173.856 16.8448 174.967 16.3446C176.107 15.8165 177.385 15.5525 178.803 15.5525C180.22 15.5525 181.499 15.7609 182.638 16.1778C183.806 16.5947 184.75 17.2617 185.473 18.1789C186.307 19.235 186.96 20.5135 187.432 22.0143C187.933 23.4873 188.183 25.0853 188.183 26.8085C188.183 28.5872 187.905 30.2686 187.349 31.8528C186.821 33.4092 186.098 34.7154 185.181 35.7716C183.625 37.5781 181.388 38.4813 178.469 38.4813C177.274 38.4813 176.19 38.259 175.218 37.8143C174.273 37.3418 173.397 36.5358 172.591 35.3964V42.8586ZM172.55 26.8085C172.55 28.3371 172.675 29.6572 172.925 30.7689C173.175 31.8806 173.508 32.7839 173.925 33.4787C174.342 34.1735 174.87 34.7154 175.509 35.1045C176.176 35.4936 176.941 35.6882 177.802 35.6882C178.664 35.6882 179.359 35.5075 179.887 35.1462C180.443 34.7849 180.887 34.3124 181.221 33.7288C181.638 33.0062 181.957 32.0751 182.18 30.9357C182.43 29.7962 182.555 28.5594 182.555 27.2254C182.555 25.8357 182.43 24.5295 182.18 23.3066C181.93 22.0559 181.596 21.0554 181.179 20.305C180.762 19.5824 180.248 19.0821 179.637 18.8042C179.025 18.5263 178.33 18.3873 177.552 18.3873C176.691 18.3873 175.968 18.5402 175.384 18.8459C174.801 19.1516 174.3 19.638 173.884 20.305C173.494 20.9442 173.175 21.8058 172.925 22.8897C172.675 23.9736 172.55 25.2799 172.55 26.8085Z" fill="#83C0B9"/>
</svg>
