<svg width="78" height="24" viewBox="0 0 78 24" fill="none" xmlns="http://www.w3.org/2000/svg">
<g clip-path="url(#clip0_624_229)">
<path d="M1.64075 24H5.46917V11.6571L0 6.17139V21.8142C0 23.0142 0.739946 24 1.64075 24Z" fill="#4285F4"/>
<path d="M18.5635 24H22.3919C23.2927 24 24.0326 23.0142 24.0326 21.8142V6.17139L18.5635 11.6142" fill="#34A853"/>
<path d="M18.5635 2.18575V11.6572L24.0326 6.21432V3.25718C24.0326 0.557177 21.7163 -0.98568 20.1077 0.642892" fill="#FBBC04"/>
<path d="M5.46875 11.6572V2.18579L12.0318 8.74293L18.5626 2.18579V11.6572L11.9996 18.1715" fill="#EA4335"/>
<path d="M0 3.25713V6.17141L5.46917 11.6143V2.1857L3.92493 0.642839C2.31635 -0.942875 0 0.599982 0 3.25713Z" fill="#C5221F"/>
</g>
<g clip-path="url(#clip1_624_229)">
<path fill-rule="evenodd" clip-rule="evenodd" d="M74.5031 3.48501C72.2473 1.23878 69.2471 0.00113964 66.0504 0C59.4634 0 54.1026 5.33065 54.1003 11.883C54.0991 13.9776 54.6498 16.0221 55.6955 17.8239L54 23.9825L60.3349 22.33C62.0802 23.2771 64.0455 23.7756 66.0453 23.7762H66.0504C72.6363 23.7762 77.9977 18.445 78 11.8927C78.0011 8.7171 76.7595 5.7318 74.5031 3.48558V3.48501ZM66.0504 21.7693H66.0464C64.2644 21.7688 62.5163 21.2924 60.991 20.3926L60.6283 20.1784L56.8689 21.159L57.8722 17.5139L57.6362 17.1401C56.642 15.5674 56.1166 13.7497 56.1177 11.8836C56.12 6.43781 60.5756 2.0069 66.0545 2.0069C68.7073 2.00804 71.201 3.03656 73.0763 4.90386C74.9517 6.77059 75.9837 9.25273 75.9825 11.8915C75.9802 17.3379 71.5247 21.7688 66.0504 21.7688V21.7693ZM71.4983 14.372C71.1998 14.2232 69.7319 13.5052 69.4579 13.4061C69.1841 13.3069 68.9853 13.2574 68.7864 13.5548C68.5876 13.8523 68.0152 14.5213 67.841 14.719C67.6668 14.9173 67.4926 14.9418 67.1941 14.793C66.8956 14.6443 65.9335 14.3309 64.7927 13.3195C63.9052 12.532 63.3058 11.5599 63.1317 11.2624C62.9575 10.965 63.1133 10.8043 63.2623 10.6567C63.3963 10.5234 63.5608 10.3097 63.7103 10.1365C63.8599 9.96325 63.9092 9.83907 64.0089 9.6413C64.1086 9.44301 64.0587 9.26983 63.9843 9.12106C63.9097 8.97235 63.3127 7.51074 63.0635 6.91644C62.8211 6.33752 62.5747 6.41615 62.3919 6.40647C62.2177 6.39792 62.0189 6.39621 61.8195 6.39621C61.6201 6.39621 61.2969 6.47029 61.0231 6.76774C60.7492 7.06515 59.9779 7.78369 59.9779 9.24471C59.9779 10.7057 61.0477 12.1183 61.1973 12.3166C61.3468 12.5149 63.3029 15.5139 66.2979 16.8005C67.0102 17.1065 67.5665 17.2894 68.0003 17.4262C68.7154 17.6524 69.3663 17.6205 69.8808 17.5441C70.4544 17.4587 71.6473 16.8256 71.896 16.1321C72.1447 15.4386 72.1447 14.8437 72.0702 14.7201C71.9957 14.5964 71.7963 14.5218 71.4978 14.3731L71.4983 14.372Z" fill="#25D366"/>
</g>
<defs>
<clipPath id="clip0_624_229">
<rect width="24" height="24" fill="white"/>
</clipPath>
<clipPath id="clip1_624_229">
<rect width="24" height="24" fill="white" transform="translate(54)"/>
</clipPath>
</defs>
</svg>
