<svg width="372" height="268" viewBox="0 0 372 268" fill="none" xmlns="http://www.w3.org/2000/svg">
<g clip-path="url(#clip0_631_214)">
<path d="M363.317 267.698H140.121C137.819 267.695 135.612 266.778 133.984 265.146C132.357 263.515 131.441 261.303 131.438 258.996V8.70146C131.441 6.39448 132.357 4.18274 133.984 2.55147C135.612 0.920188 137.819 0.00259706 140.121 0H363.317C365.619 0.00259706 367.826 0.920188 369.454 2.55147C371.082 4.18274 371.997 6.39448 372 8.70146V258.996C371.997 261.303 371.082 263.515 369.454 265.146C367.826 266.778 365.619 267.695 363.317 267.698ZM140.121 1.0237C138.09 1.026 136.143 1.83564 134.706 3.275C133.27 4.71436 132.462 6.6659 132.46 8.70146V258.996C132.462 261.032 133.27 262.983 134.706 264.423C136.143 265.862 138.09 266.672 140.121 266.674H363.317C365.348 266.672 367.296 265.862 368.732 264.423C370.168 262.983 370.976 261.032 370.978 258.996V8.70146C370.976 6.6659 370.168 4.71436 368.732 3.275C367.296 1.83564 365.348 1.026 363.317 1.0237H140.121Z" fill="#3F3D56"/>
<path d="M371.489 21.2881H131.949V22.3118H371.489V21.2881Z" fill="#3F3D56"/>
<path d="M143.696 15.3556C145.953 15.3556 147.782 13.5223 147.782 11.2608C147.782 8.99932 145.953 7.16602 143.696 7.16602C141.44 7.16602 139.61 8.99932 139.61 11.2608C139.61 13.5223 141.44 15.3556 143.696 15.3556Z" fill="#83C0B9"/>
<path d="M156.465 15.3556C158.721 15.3556 160.551 13.5223 160.551 11.2608C160.551 8.99932 158.721 7.16602 156.465 7.16602C154.208 7.16602 152.379 8.99932 152.379 11.2608C152.379 13.5223 154.208 15.3556 156.465 15.3556Z" fill="#83C0B9"/>
<path d="M169.233 15.3556C171.49 15.3556 173.319 13.5223 173.319 11.2608C173.319 8.99932 171.49 7.16602 169.233 7.16602C166.977 7.16602 165.147 8.99932 165.147 11.2608C165.147 13.5223 166.977 15.3556 169.233 15.3556Z" fill="#83C0B9"/>
<path d="M331.396 58.8628H172.043C170.282 58.8628 168.593 58.1617 167.348 56.9139C166.103 55.666 165.403 53.9735 165.403 52.2087C165.403 50.444 166.103 48.7515 167.348 47.5036C168.593 46.2557 170.282 45.5547 172.043 45.5547H331.396C333.157 45.5547 334.846 46.2557 336.091 47.5036C337.336 48.7515 338.035 50.444 338.035 52.2087C338.035 53.9735 337.336 55.666 336.091 56.9139C334.846 58.1617 333.157 58.8628 331.396 58.8628ZM172.043 46.5784C170.553 46.5784 169.124 47.1716 168.07 48.2275C167.017 49.2834 166.425 50.7155 166.425 52.2087C166.425 53.702 167.017 55.1341 168.07 56.19C169.124 57.2459 170.553 57.8391 172.043 57.8391H331.396C332.886 57.8391 334.315 57.2459 335.368 56.19C336.422 55.1341 337.014 53.702 337.014 52.2087C337.014 50.7155 336.422 49.2834 335.368 48.2275C334.315 47.1716 332.886 46.5784 331.396 46.5784H172.043Z" fill="#3F3D56"/>
<path d="M291.994 111.374H219.468C218.384 111.374 217.345 110.942 216.579 110.174C215.812 109.406 215.382 108.365 215.382 107.279C215.382 106.193 215.812 105.151 216.579 104.383C217.345 103.615 218.384 103.184 219.468 103.184H291.994C293.077 103.184 294.117 103.615 294.883 104.383C295.649 105.151 296.08 106.193 296.08 107.279C296.08 108.365 295.649 109.406 294.883 110.174C294.117 110.942 293.077 111.374 291.994 111.374Z" fill="#CCCCCC"/>
<path d="M333.875 125.194H219.468C218.384 125.194 217.345 124.762 216.579 123.994C215.812 123.226 215.382 122.185 215.382 121.099C215.382 120.013 215.812 118.971 216.579 118.203C217.345 117.436 218.384 117.004 219.468 117.004H333.875C334.959 117.004 335.998 117.436 336.764 118.203C337.53 118.971 337.961 120.013 337.961 121.099C337.961 122.185 337.53 123.226 336.764 123.994C335.998 124.762 334.959 125.194 333.875 125.194Z" fill="#CCCCCC"/>
<path d="M192.292 125.962H170.33C169.043 125.96 167.81 125.447 166.9 124.536C165.991 123.624 165.479 122.388 165.478 121.099V107.279C165.479 105.99 165.991 104.754 166.9 103.842C167.81 102.931 169.043 102.418 170.33 102.417H192.292C193.578 102.418 194.811 102.931 195.721 103.842C196.631 104.754 197.142 105.99 197.144 107.279V121.099C197.142 122.388 196.631 123.624 195.721 124.536C194.811 125.447 193.578 125.96 192.292 125.962ZM170.33 103.44C169.314 103.441 168.34 103.846 167.622 104.566C166.904 105.286 166.5 106.261 166.499 107.279V121.099C166.5 122.117 166.904 123.093 167.622 123.812C168.34 124.532 169.314 124.937 170.33 124.938H192.292C193.307 124.937 194.281 124.532 194.999 123.812C195.717 123.093 196.121 122.117 196.122 121.099V107.279C196.121 106.261 195.717 105.286 194.999 104.566C194.281 103.846 193.307 103.441 192.292 103.44H170.33Z" fill="#CCCCCC"/>
<path d="M291.994 160H219.468C218.384 160 217.345 159.568 216.579 158.8C215.812 158.032 215.382 156.991 215.382 155.905C215.382 154.819 215.812 153.777 216.579 153.009C217.345 152.241 218.384 151.81 219.468 151.81H291.994C293.077 151.81 294.117 152.241 294.883 153.009C295.649 153.777 296.08 154.819 296.08 155.905C296.08 156.991 295.649 158.032 294.883 158.8C294.117 159.568 293.077 160 291.994 160Z" fill="#CCCCCC"/>
<path d="M333.875 173.819H219.468C218.384 173.819 217.345 173.388 216.579 172.62C215.812 171.852 215.382 170.811 215.382 169.725C215.382 168.639 215.812 167.597 216.579 166.829C217.345 166.061 218.384 165.63 219.468 165.63H333.875C334.959 165.63 335.998 166.061 336.764 166.829C337.53 167.597 337.961 168.639 337.961 169.725C337.961 170.811 337.53 171.852 336.764 172.62C335.998 173.388 334.959 173.819 333.875 173.819Z" fill="#CCCCCC"/>
<path d="M192.292 174.587H170.33C169.043 174.586 167.81 174.073 166.9 173.162C165.991 172.25 165.479 171.014 165.478 169.725V155.905C165.479 154.616 165.991 153.38 166.9 152.468C167.81 151.556 169.043 151.044 170.33 151.042H192.292C193.578 151.044 194.811 151.556 195.721 152.468C196.631 153.38 197.142 154.616 197.144 155.905V169.725C197.142 171.014 196.631 172.25 195.721 173.162C194.811 174.073 193.578 174.586 192.292 174.587ZM170.33 152.066C169.314 152.067 168.34 152.472 167.622 153.192C166.904 153.911 166.5 154.887 166.499 155.905V169.725C166.5 170.743 166.904 171.718 167.622 172.438C168.34 173.158 169.314 173.563 170.33 173.564H192.292C193.307 173.563 194.281 173.158 194.999 172.438C195.717 171.718 196.121 170.743 196.122 169.725V155.905C196.121 154.887 195.717 153.911 194.999 153.192C194.281 152.472 193.307 152.067 192.292 152.066H170.33Z" fill="#CCCCCC"/>
<path d="M291.994 208.625H219.468C218.384 208.625 217.345 208.194 216.579 207.426C215.812 206.658 215.382 205.617 215.382 204.531C215.382 203.445 215.812 202.403 216.579 201.635C217.345 200.867 218.384 200.436 219.468 200.436H291.994C293.077 200.436 294.117 200.867 294.883 201.635C295.649 202.403 296.08 203.445 296.08 204.531C296.08 205.617 295.649 206.658 294.883 207.426C294.117 208.194 293.077 208.625 291.994 208.625Z" fill="#F2F2F2"/>
<path d="M333.875 222.445H219.468C218.384 222.445 217.345 222.014 216.579 221.246C215.812 220.478 215.382 219.436 215.382 218.35C215.382 217.264 215.812 216.223 216.579 215.455C217.345 214.687 218.384 214.256 219.468 214.256H333.875C334.959 214.256 335.998 214.687 336.764 215.455C337.53 216.223 337.961 217.264 337.961 218.35C337.961 219.436 337.53 220.478 336.764 221.246C335.998 222.014 334.959 222.445 333.875 222.445Z" fill="#F2F2F2"/>
<path d="M192.292 223.213H170.33C169.043 223.212 167.81 222.699 166.9 221.787C165.991 220.876 165.479 219.64 165.478 218.351V204.531C165.479 203.241 165.991 202.005 166.9 201.094C167.81 200.182 169.043 199.669 170.33 199.668H192.292C193.578 199.669 194.811 200.182 195.721 201.094C196.631 202.005 197.142 203.241 197.144 204.531V218.351C197.142 219.64 196.631 220.876 195.721 221.787C194.811 222.699 193.578 223.212 192.292 223.213Z" fill="#F2F2F2"/>
<path d="M181.311 121.733L180.128 120.664C175.929 116.799 173.156 114.291 173.156 111.167C173.146 110.573 173.254 109.982 173.476 109.431C173.697 108.879 174.027 108.378 174.445 107.956C174.863 107.534 175.361 107.201 175.91 106.976C176.459 106.751 177.048 106.638 177.641 106.645C178.341 106.649 179.032 106.805 179.666 107.103C180.299 107.402 180.861 107.834 181.311 108.372C181.761 107.834 182.322 107.402 182.956 107.103C183.59 106.805 184.28 106.649 184.98 106.645C185.574 106.638 186.162 106.751 186.711 106.976C187.26 107.201 187.759 107.534 188.177 107.956C188.595 108.378 188.925 108.879 189.146 109.431C189.367 109.982 189.476 110.573 189.466 111.167C189.466 114.291 186.693 116.8 182.493 120.664L181.311 121.733Z" fill="#83C0B9"/>
<path d="M181.311 170.358L180.128 169.289C175.929 165.425 173.156 162.917 173.156 159.793C173.146 159.199 173.254 158.608 173.476 158.057C173.697 157.505 174.027 157.003 174.445 156.582C174.863 156.16 175.361 155.827 175.91 155.602C176.459 155.376 177.048 155.264 177.641 155.271C178.341 155.275 179.032 155.431 179.666 155.729C180.299 156.027 180.861 156.46 181.311 156.998C181.761 156.46 182.322 156.027 182.956 155.729C183.59 155.431 184.28 155.275 184.98 155.271C185.574 155.264 186.162 155.376 186.711 155.602C187.26 155.827 187.759 156.16 188.177 156.582C188.595 157.003 188.925 157.505 189.146 158.057C189.367 158.608 189.476 159.199 189.466 159.793C189.466 162.917 186.693 165.425 182.493 169.289L181.311 170.358Z" fill="#83C0B9"/>
<path d="M88.528 162.178H66.566C65.2795 162.177 64.0463 161.664 63.1366 160.753C62.227 159.841 61.7153 158.605 61.7139 157.316V143.496C61.7153 142.207 62.227 140.971 63.1366 140.059C64.0463 139.148 65.2795 138.635 66.566 138.633H88.528C89.8144 138.635 91.0477 139.148 91.9574 140.059C92.867 140.971 93.3787 142.207 93.3801 143.496V157.316C93.3787 158.605 92.867 159.841 91.9574 160.753C91.0477 161.664 89.8144 162.177 88.528 162.178ZM66.566 139.657C65.5504 139.658 64.5767 140.063 63.8586 140.783C63.1404 141.502 62.7365 142.478 62.7354 143.496V157.316C62.7365 158.334 63.1404 159.309 63.8586 160.029C64.5767 160.749 65.5504 161.154 66.566 161.155H88.528C89.5436 161.154 90.5173 160.749 91.2354 160.029C91.9536 159.309 92.3575 158.334 92.3586 157.316V143.496C92.3575 142.478 91.9536 141.502 91.2354 140.783C90.5173 140.063 89.5436 139.658 88.528 139.657H66.566Z" fill="#3F3D56"/>
<path d="M77.5471 157.95L76.3645 156.881C72.1649 153.017 69.3923 150.508 69.3923 147.384C69.3819 146.79 69.4906 146.199 69.712 145.648C69.9333 145.096 70.2629 144.595 70.6811 144.173C71.0993 143.751 71.5977 143.418 72.1467 143.193C72.6957 142.968 73.2842 142.855 73.8774 142.862C74.5775 142.866 75.2684 143.022 75.9021 143.32C76.5358 143.619 77.0971 144.051 77.5472 144.589C77.9972 144.051 78.5585 143.619 79.1922 143.32C79.8259 143.022 80.5168 142.866 81.2168 142.862C81.81 142.855 82.3986 142.968 82.9476 143.193C83.4966 143.418 83.995 143.751 84.4132 144.173C84.8314 144.595 85.1609 145.096 85.3823 145.648C85.6037 146.199 85.7124 146.79 85.702 147.384C85.702 150.509 82.9294 153.017 78.7298 156.881L77.5471 157.95Z" fill="#83C0B9"/>
<path d="M64.8469 262.122L70.5274 260.767L68.0187 238.165L59.6348 240.164L64.8469 262.122Z" fill="#FFB8B8"/>
<path d="M82.7373 263.442L64.8845 267.698L63.2437 260.785L74.1988 258.174C75.1047 257.958 76.0441 257.923 76.9634 258.071C77.8827 258.218 78.7639 258.546 79.5568 259.036C80.3497 259.525 81.0387 260.166 81.5844 260.922C82.1301 261.678 82.5218 262.534 82.7373 263.442Z" fill="#2F2E41"/>
<path d="M59.2708 247.568L46.9336 205.194L62.3505 201.361L71.3948 246.238C71.4611 246.567 71.4549 246.906 71.3768 247.233C71.2986 247.559 71.1503 247.864 70.9423 248.127C70.7342 248.389 70.4714 248.603 70.1723 248.754C69.8731 248.904 69.5448 248.987 69.2103 248.997L61.5455 249.225C61.5224 249.226 61.4994 249.226 61.4765 249.226C60.9794 249.226 60.4957 249.064 60.098 248.765C59.7003 248.466 59.4101 248.046 59.2708 247.568Z" fill="#2F2E41"/>
<path d="M29.669 262.264L35.5079 262.263L38.2848 239.693L29.667 239.694L29.669 262.264Z" fill="#FFB8B8"/>
<path d="M46.7695 267.696L28.4186 267.698L28.4179 260.592L39.6788 260.591C41.5592 260.591 43.3626 261.339 44.6924 262.672C46.0222 264.004 46.7694 265.812 46.7695 267.696Z" fill="#2F2E41"/>
<path d="M28.6441 253.494C28.4295 253.286 28.2583 253.037 28.1404 252.762C28.0226 252.487 27.9603 252.192 27.9574 251.892L22.6377 209.621C22.6355 209.012 22.8743 208.426 23.3019 207.992C23.7294 207.558 24.311 207.312 24.9194 207.306L36.7933 207.22H36.8103C37.4132 207.222 37.9915 207.46 38.4211 207.884C38.8507 208.308 39.0973 208.884 39.1081 209.488L39.7393 251.13C39.7488 251.737 39.518 252.324 39.0974 252.762C38.6768 253.2 38.1005 253.453 37.4942 253.467L30.2862 254.153C30.2751 254.153 30.264 254.153 30.2529 254.153C29.6508 254.155 29.0726 253.918 28.6441 253.494Z" fill="#2F2E41"/>
<path d="M31.189 113.584C38.1171 113.584 43.7334 107.956 43.7334 101.012C43.7334 94.0694 38.1171 88.4409 31.189 88.4409C24.2609 88.4409 18.6445 94.0694 18.6445 101.012C18.6445 107.956 24.2609 113.584 31.189 113.584Z" fill="#FFB8B8"/>
<path d="M14.6625 207.413C6.50057 201.022 6.58696 193.566 9.37199 183.607C10.1566 180.802 11.0034 177.958 11.8998 174.948C16.0649 160.962 20.7857 145.109 18.9935 132.02C18.5026 128.435 19.7539 124.664 22.4263 121.675C25.0989 118.684 28.696 117.028 32.312 117.121C35.9217 117.218 39.4317 119.067 41.9418 122.195C44.4396 125.308 45.6318 136.253 45.9852 137.822C47.6076 145.022 48.5868 149.368 49.2891 156.301C50.1197 164.498 60.0671 189.004 63.237 193.113C64.0782 194.198 64.6805 195.45 65.0042 196.785C65.3279 198.12 65.3656 199.508 65.1149 200.859C64.8812 202.144 64.3747 203.364 63.6296 204.436C62.8845 205.507 61.9183 206.406 60.7964 207.071C55.6522 210.222 49.9995 212.451 44.0919 213.659C41.5293 214.157 38.925 214.408 36.3147 214.409C28.2159 214.409 20.4774 211.966 14.6625 207.413Z" fill="#C3E5E1"/>
<path d="M66.8283 160.05C66.5034 159.429 66.0465 158.886 65.4898 158.461C64.933 158.035 64.2899 157.737 63.6059 157.588C62.9218 157.438 62.2133 157.441 61.5304 157.596C60.8474 157.75 60.2066 158.053 59.6531 158.483L50.1474 153.047L45.4424 158.03L58.9738 165.518C59.7557 166.402 60.834 166.968 62.0044 167.108C63.1748 167.249 64.356 166.954 65.3242 166.28C66.2924 165.606 66.9802 164.6 67.2574 163.452C67.5346 162.303 67.3819 161.093 66.8283 160.05Z" fill="#FFB8B8"/>
<path d="M52.3383 163.735L35.3013 158.371C33.0139 157.646 31.0035 156.235 29.5414 154.328C28.0792 152.422 27.2357 150.112 27.1246 147.71L26.3915 131.121C26.3503 130.187 26.4974 129.255 26.8239 128.38C27.1504 127.505 27.6496 126.705 28.2917 126.028C28.9339 125.351 29.7057 124.811 30.561 124.439C31.4163 124.068 32.3376 123.873 33.2697 123.867C34.2018 123.861 35.1256 124.043 35.9858 124.403C36.8461 124.763 37.6251 125.292 38.2762 125.961C38.9274 126.629 39.4373 127.422 39.7755 128.293C40.1138 129.163 40.2733 130.093 40.2447 131.027L39.7761 146.29L57.9084 153.701C58.2286 153.832 58.5151 154.034 58.7468 154.291C58.9784 154.548 59.1491 154.855 59.2462 155.187C59.3433 155.52 59.3643 155.87 59.3076 156.212C59.2509 156.554 59.1179 156.878 58.9187 157.161L54.9056 162.865C54.6255 163.265 54.2257 163.565 53.764 163.721C53.3023 163.877 52.803 163.882 52.3383 163.735Z" fill="#2F2E41"/>
<path d="M10.9715 116.656C11.5447 113.211 11.5236 109.64 11.5032 106.187C11.4977 105.249 11.4921 104.312 11.4978 103.376C11.5245 99.029 11.7937 94.4211 13.5672 90.1791C15.4975 85.5624 19.072 82.2286 23.129 81.2614C27.703 80.1697 32.6662 82.583 34.1604 86.5566C35.1482 85.9975 36.2475 85.6651 37.3789 85.5834C38.5104 85.5017 39.6459 85.6727 40.7035 86.0841C41.761 86.4955 42.7142 87.137 43.4944 87.9623C44.2745 88.7877 44.8621 89.7763 45.2148 90.8568C45.5675 91.9374 45.6765 93.0829 45.5338 94.2107C45.3912 95.3386 45.0005 96.4206 44.39 97.3788C43.7794 98.337 42.9643 99.1474 42.0033 99.7516C41.0424 100.356 39.9596 100.739 38.8331 100.873L38.6414 100.89L37.1467 96.9968C37.1382 97.065 37.1301 97.134 37.1219 97.2035C37.0268 98.0108 36.9284 98.8453 36.2634 99.3274C35.4332 99.9292 34.3992 101.91 34.7013 103.917C34.8897 104.943 35.1704 105.951 35.54 106.927C35.9508 107.998 36.249 109.11 36.4298 110.243C36.6199 111.696 36.2405 113.167 35.3714 114.345C35.1139 114.689 34.7891 114.977 34.4169 115.191C34.0447 115.405 33.6329 115.541 33.2066 115.59L16.3583 117.336L15.605 111.696L10.8125 117.612L10.9715 116.656Z" fill="#2F2E41"/>
<path d="M98.574 268H0.510746C0.375288 268 0.245377 267.946 0.149594 267.85C0.0538102 267.754 0 267.624 0 267.488C0 267.352 0.0538102 267.222 0.149594 267.126C0.245377 267.03 0.375288 266.976 0.510746 266.976H98.574C98.7094 266.976 98.8393 267.03 98.9351 267.126C99.0309 267.222 99.0847 267.352 99.0847 267.488C99.0847 267.624 99.0309 267.754 98.9351 267.85C98.8393 267.946 98.7094 268 98.574 268Z" fill="#CCCCCC"/>
</g>
<defs>
<clipPath id="clip0_631_214">
<rect width="372" height="268" fill="white"/>
</clipPath>
</defs>
</svg>
