<svg width="55" height="80" viewBox="0 0 55 80" fill="none" xmlns="http://www.w3.org/2000/svg">
<circle cx="28.9964" cy="20.6468" r="20.6468" fill="#399B90"/>
<circle cx="36.2222" cy="11.8721" r="5.16169" fill="#D6FFD2"/>
<path d="M11.1941 39.3958C9.591 37.1063 6.43542 36.5499 4.14594 38.153C1.85645 39.7561 1.30004 42.9117 2.90315 45.2012L24.2048 75.623C25.8079 77.9125 28.9635 78.4689 31.253 76.8658C33.5424 75.2627 34.0989 72.1071 32.4957 69.8177L11.1941 39.3958Z" fill="#399B90"/>
<line x1="13.6468" y1="60.4854" x2="22.1968" y2="54.4986" stroke="#D6FFD2" stroke-width="0.353198"/>
<path fill-rule="evenodd" clip-rule="evenodd" d="M8.12475 40.325C9.49279 40.2855 10.3824 41.3896 10.5719 42.0599C10.6268 42.2543 10.5312 42.4281 10.3582 42.4482C10.1852 42.4682 10.0005 42.3269 9.9455 42.1325C9.85163 41.8005 9.28267 41.0034 8.27512 41.0324C8.09845 41.0375 7.92156 40.8833 7.88004 40.6879C7.83851 40.4926 7.94808 40.3301 8.12475 40.325Z" fill="#D6FFD2" stroke="white" stroke-width="0.163743" stroke-linecap="round" stroke-linejoin="round"/>
<path d="M50.9427 47.6892C52.9223 49.4613 53.0905 52.5026 51.3184 54.4822L31.9997 76.0627C30.2276 78.0422 27.1863 78.2104 25.2067 76.4383C23.2271 74.6662 23.059 71.6249 24.831 69.6454L44.1497 48.0649C45.9218 46.0853 48.9631 45.9171 50.9427 47.6892Z" fill="#D6FFD2" stroke="#399B90" stroke-width="0.5"/>
</svg>
