<svg width="225" height="25" viewBox="0 0 225 25" fill="none" xmlns="http://www.w3.org/2000/svg">
<path fill-rule="evenodd" clip-rule="evenodd" d="M117.588 0.295072C72.0997 2.32742 40.3592 6.69099 12.0857 14.8802C8.02101 16.0756 -0.34748 19.6024 0.01117 19.961C0.13072 20.0806 2.04352 19.5426 4.31497 18.7057C7.36349 17.6298 8.67854 17.4505 9.21651 17.9287C10.2925 18.8253 16.27 18.2873 37.4901 15.4779C87.9999 8.72333 119.202 6.15301 151.361 6.21279C175.331 6.21279 182.205 6.69098 200.078 9.61995L208.147 10.935L156.143 11.2937C96.6075 11.7121 60.1447 12.9076 58.5308 14.5215C58.3515 14.7008 58.4711 15.1193 58.8297 15.4779C59.3079 15.9561 64.9268 15.8963 78.4957 15.3583C108.981 14.1628 152.915 14.4019 151.541 15.717C151.122 16.1952 116.094 17.8091 106.949 17.8091C95.0533 17.8091 92.9612 18.108 93.2003 19.8415C93.4992 21.7543 96.3684 21.9336 114.301 21.2761C129.603 20.7381 139.347 20.8576 140.183 21.6347C140.363 21.8738 140.183 22.352 139.825 22.7107C139.406 23.1291 139.107 23.7866 139.107 24.205C139.107 25.1017 144.547 25.1614 150.764 24.3844C154.111 23.9659 153.932 23.9659 148.253 23.8464C142.873 23.7866 142.156 23.6671 142.216 22.7107C142.216 22.1727 142.096 21.2761 141.857 20.7381C141.498 19.9012 142.335 19.7219 148.253 19.423C155.306 19.1242 159.431 17.9884 159.431 16.3745C159.431 15.179 157.937 14.7606 148.373 13.6249L140.004 12.6685L173.598 12.9076C199.839 13.1467 207.609 13.0271 208.984 12.4294C210 12.011 210.837 11.473 210.837 11.1741C210.837 9.44063 186.509 6.21278 164.93 5.19661C135.521 3.76201 80.1693 7.52783 32.1701 14.2824C25.1764 15.2388 18.9598 15.9561 18.4218 15.8963C15.9711 15.3583 51.6567 8.90265 65.2854 7.34851C98.8191 3.64246 140.721 1.90899 175.869 2.86539C187.704 3.16426 198.344 3.58269 199.54 3.76201C202.529 4.18043 224.048 4.18044 224.466 3.82179C224.645 3.64246 224.645 3.28381 224.466 3.10448C223.809 2.44696 207.55 1.13192 192.905 0.534168C180.053 -0.0635814 128.169 -0.183128 117.588 0.295072ZM16.9873 16.3745C16.8079 16.5539 16.27 16.6136 15.8515 16.4343C15.3733 16.255 15.5527 16.0756 16.2102 16.0756C16.8677 16.0159 17.2264 16.1952 16.9873 16.3745Z" fill="#399B90"/>
</svg>
