<svg width="270" height="70" viewBox="0 0 270 70" fill="none" xmlns="http://www.w3.org/2000/svg">
<path d="M15.7167 31.925C14.6606 31.925 13.6461 32.1474 12.6734 32.5921C11.7284 33.0367 10.9642 33.676 10.3805 34.5097C9.63011 35.5937 8.99088 36.9555 8.46282 38.5952C7.96256 40.2072 7.71242 41.9998 7.71242 43.9731C7.71242 45.9464 7.92087 47.7946 8.33776 49.5177C8.75464 51.2408 9.33829 52.6861 10.0887 53.8533C10.7001 54.7983 11.52 55.4931 12.5483 55.9378C13.6044 56.3825 14.7856 56.6048 16.0919 56.6048C20.761 56.6048 23.4986 54.2563 24.3046 49.5594H27.8481C26.4863 56.4519 22.2618 59.8982 15.1747 59.8982C11.3393 59.8982 8.28217 58.7865 6.00318 56.5631C4.64135 55.2291 3.59913 53.5476 2.87653 51.5188C2.15392 49.4899 1.79262 47.2387 1.79262 44.7652C1.79262 41.9581 2.25119 39.4151 3.16835 37.1361C4.0855 34.8571 5.37785 33.0367 7.0454 31.6749C9.15764 29.924 11.9508 29.0485 15.4248 29.0485C17.148 29.0485 18.5515 29.2709 19.6354 29.7155C20.7193 30.1602 21.7893 30.9523 22.8455 32.0918L23.6792 29.4654H27.2228V39.304H23.4291C23.04 36.8582 22.1645 35.0239 20.8027 33.801C19.4687 32.5504 17.7733 31.925 15.7167 31.925ZM38.197 36.9694V48.142C38.197 49.9207 38.2387 51.2547 38.3221 52.1441C38.4055 53.0335 38.5305 53.7422 38.6973 54.2702C38.9196 54.9372 39.2809 55.4514 39.7812 55.8127C40.3093 56.1462 40.8373 56.313 41.3654 56.313C42.1158 56.313 42.7967 56.174 43.4081 55.8961C44.0196 55.6182 44.5893 55.243 45.1174 54.7705C46.2569 53.7422 46.8822 52.1441 46.9934 49.9763V40.096L43.3664 39.304V36.9694H52.2878V56.3547L55.4979 57.1468V59.4813L47.7854 59.8982L47.3269 55.3124H47.1601C46.3541 56.7299 45.2563 57.8555 43.8667 58.6892C42.4771 59.4952 40.9902 59.8982 39.406 59.8982C38.3499 59.8982 37.3771 59.7037 36.4878 59.3146C35.6262 58.8977 34.9453 58.3418 34.445 57.647C33.917 56.8688 33.5279 55.771 33.2777 54.3536C33.0276 52.9362 32.9025 51.0463 32.9025 48.6839V40.096L30.1094 39.304V36.9694H38.197ZM70.0616 40.0127C69.7559 40.0127 69.4085 40.2072 69.0194 40.5963C68.6303 40.9576 68.269 41.3884 67.9355 41.8887C67.6297 42.3889 67.4074 42.8336 67.2684 43.2227C66.9349 44.1676 66.6431 45.1404 66.393 46.1409C66.1428 47.1414 66.0178 48.3643 66.0178 49.8095V56.3547L70.5202 57.1468V59.4813H57.5133V57.1468L60.7233 56.3547V39.4707L57.5133 38.6786V36.9694H64.7671L65.6843 42.4723H65.851C66.4902 40.5824 67.3518 39.1233 68.4357 38.095C69.5196 37.0667 70.7147 36.5525 72.021 36.5525C73.1049 36.5525 74.0081 36.8999 74.7307 37.5947C75.4533 38.2617 75.8146 39.165 75.8146 40.3045C75.8146 41.1383 75.5645 41.9026 75.0642 42.5974C74.564 43.2644 73.8553 43.5979 72.9381 43.5979C71.8264 43.5979 71.0343 43.3478 70.5618 42.8475C70.0894 42.3194 69.8531 41.7497 69.8531 41.1383C69.8531 40.9437 69.8531 40.8047 69.8531 40.7214C69.8809 40.6102 69.9504 40.374 70.0616 40.0127ZM77.3001 54.562C77.3001 52.2553 78.3562 50.4765 80.4685 49.2259C82.5807 47.9474 85.9019 46.9608 90.4321 46.266C90.3209 44.8764 90.1681 43.8063 89.9735 43.0559C89.779 42.3055 89.5288 41.6663 89.2231 41.1383C88.8618 40.499 88.4171 39.9849 87.8891 39.5958C87.361 39.2067 86.694 39.0121 85.888 39.0121C85.3044 39.0121 84.7624 39.1233 84.2621 39.3456C83.7897 39.568 83.4701 39.8737 83.3033 40.2628C83.6924 40.4573 83.9564 40.7631 84.0954 41.1799C84.2621 41.5968 84.3455 41.9581 84.3455 42.2639C84.3455 42.9587 84.0398 43.584 83.4284 44.1399C82.8169 44.6679 82.0804 44.9319 81.2189 44.9319C80.3573 44.9319 79.6764 44.654 79.1761 44.0982C78.6758 43.5145 78.4257 42.7919 78.4257 41.9303C78.4257 40.7909 78.8287 39.8181 79.6347 39.0121C80.4407 38.2061 81.469 37.5947 82.7197 37.1778C83.9703 36.7609 85.2349 36.5525 86.5133 36.5525C87.8196 36.5525 88.9869 36.747 90.0152 37.1361C91.0713 37.4974 91.919 37.956 92.5582 38.5119C94.7538 40.4573 95.8516 43.5423 95.8516 47.7668V53.1863C95.8516 54.5482 95.935 55.4931 96.1018 56.0212C96.2963 56.5492 96.6993 56.8132 97.3107 56.8132H99.1867V58.6892C96.6298 59.4952 94.6982 59.8982 93.392 59.8982C92.4748 59.8982 91.8634 59.5925 91.5577 58.9811C91.252 58.3696 91.0991 57.1606 91.0991 55.3541H90.9323C90.0708 56.7716 88.9313 57.8833 87.5139 58.6892C86.0965 59.4952 84.5679 59.8982 82.9281 59.8982C81.1772 59.8982 79.8014 59.4257 78.8009 58.4808C77.8004 57.5358 77.3001 56.2296 77.3001 54.562ZM85.4711 56.8549C86.0548 56.8549 86.694 56.6604 87.3888 56.2713C88.1114 55.8822 88.7367 55.3402 89.2648 54.6454C89.5705 54.2563 89.8623 53.7005 90.1403 52.9779C90.4182 52.2553 90.5572 51.3937 90.5572 50.3932C90.5572 50.0597 90.5433 49.6845 90.5155 49.2676C90.4877 48.8507 90.446 48.4616 90.3904 48.1003C88.4727 48.5172 86.958 48.9619 85.8463 49.4343C84.7624 49.9068 83.9842 50.4765 83.5117 51.1436C83.0671 51.7828 82.8447 52.5749 82.8447 53.5198C82.8447 54.7149 83.1227 55.5765 83.6785 56.1045C84.2344 56.6048 84.8319 56.8549 85.4711 56.8549ZM103.432 56.3547V40.096L100.222 39.304V36.9694H107.476L108.393 41.1383H108.56C109.366 39.7486 110.436 38.6369 111.77 37.8032C113.131 36.9694 114.577 36.5525 116.105 36.5525C117.245 36.5525 118.259 36.7748 119.148 37.2195C120.038 37.6364 120.691 38.1645 121.108 38.8037C121.553 39.4985 121.914 40.4157 122.192 41.5551C123.081 39.9988 124.235 38.7759 125.652 37.8865C127.069 36.9972 128.584 36.5525 130.196 36.5525C131.308 36.5525 132.308 36.7748 133.198 37.2195C134.087 37.6364 134.768 38.22 135.24 38.9704C135.574 39.4985 135.838 40.1794 136.032 41.0132C136.227 41.847 136.366 42.9309 136.449 44.2649C136.533 45.5712 136.574 47.2387 136.574 49.2676V56.3547L139.784 57.1468V59.4813H128.487V57.1468L131.28 56.3547V48.3087C131.28 46.5022 131.224 45.1682 131.113 44.3066C131.002 43.4172 130.835 42.7085 130.613 42.1805C130.335 41.5135 129.96 41.0549 129.487 40.8047C129.043 40.5268 128.57 40.3879 128.07 40.3879C127.375 40.3879 126.736 40.4851 126.152 40.6797C125.596 40.8742 125.054 41.2077 124.526 41.6802C123.915 42.2361 123.456 42.8892 123.151 43.6396C122.873 44.39 122.706 45.3349 122.65 46.4744V56.3547L125.443 57.1468V59.4813H114.563V57.1468L117.356 56.3547V48.3087C117.356 46.5022 117.3 45.1682 117.189 44.3066C117.078 43.4172 116.911 42.7085 116.689 42.1805C116.411 41.5135 116.036 41.0549 115.563 40.8047C115.119 40.5268 114.646 40.3879 114.146 40.3879C113.451 40.3879 112.812 40.4851 112.228 40.6797C111.672 40.8742 111.13 41.2077 110.602 41.6802C109.991 42.2361 109.532 42.8892 109.227 43.6396C108.949 44.39 108.782 45.3349 108.726 46.4744V56.3547L111.519 57.1468V59.4813H100.222V57.1468L103.432 56.3547ZM141.665 54.562C141.665 52.2553 142.721 50.4765 144.834 49.2259C146.946 47.9474 150.267 46.9608 154.797 46.266C154.686 44.8764 154.533 43.8063 154.339 43.0559C154.144 42.3055 153.894 41.6663 153.588 41.1383C153.227 40.499 152.782 39.9849 152.254 39.5958C151.726 39.2067 151.059 39.0121 150.253 39.0121C149.67 39.0121 149.128 39.1233 148.627 39.3456C148.155 39.568 147.835 39.8737 147.669 40.2628C148.058 40.4573 148.322 40.7631 148.461 41.1799C148.627 41.5968 148.711 41.9581 148.711 42.2639C148.711 42.9587 148.405 43.584 147.794 44.1399C147.182 44.6679 146.446 44.9319 145.584 44.9319C144.722 44.9319 144.042 44.654 143.541 44.0982C143.041 43.5145 142.791 42.7919 142.791 41.9303C142.791 40.7909 143.194 39.8181 144 39.0121C144.806 38.2061 145.834 37.5947 147.085 37.1778C148.336 36.7609 149.6 36.5525 150.879 36.5525C152.185 36.5525 153.352 36.747 154.38 37.1361C155.437 37.4974 156.284 37.956 156.923 38.5119C159.119 40.4573 160.217 43.5423 160.217 47.7668V53.1863C160.217 54.5482 160.3 55.4931 160.467 56.0212C160.662 56.5492 161.065 56.8132 161.676 56.8132H163.552V58.6892C160.995 59.4952 159.063 59.8982 157.757 59.8982C156.84 59.8982 156.229 59.5925 155.923 58.9811C155.617 58.3696 155.464 57.1606 155.464 55.3541H155.298C154.436 56.7716 153.296 57.8833 151.879 58.6892C150.462 59.4952 148.933 59.8982 147.293 59.8982C145.542 59.8982 144.167 59.4257 143.166 58.4808C142.166 57.5358 141.665 56.2296 141.665 54.562ZM149.836 56.8549C150.42 56.8549 151.059 56.6604 151.754 56.2713C152.477 55.8822 153.102 55.3402 153.63 54.6454C153.936 54.2563 154.228 53.7005 154.505 52.9779C154.783 52.2553 154.922 51.3937 154.922 50.3932C154.922 50.0597 154.908 49.6845 154.881 49.2676C154.853 48.8507 154.811 48.4616 154.756 48.1003C152.838 48.5172 151.323 48.9619 150.212 49.4343C149.128 49.9068 148.349 50.4765 147.877 51.1436C147.432 51.7828 147.21 52.5749 147.21 53.5198C147.21 54.7149 147.488 55.5765 148.044 56.1045C148.6 56.6048 149.197 56.8549 149.836 56.8549ZM172.591 63.8586L176.635 64.6507V66.9853H164.087V64.6507L167.297 63.8586V40.096L164.087 39.304V36.9694H171.341L171.966 40.1794C172.855 38.7898 173.856 37.8448 174.967 37.3446C176.107 36.8165 177.385 36.5525 178.803 36.5525C180.22 36.5525 181.499 36.7609 182.638 37.1778C183.806 37.5947 184.75 38.2617 185.473 39.1789C186.307 40.235 186.96 41.5135 187.432 43.0143C187.933 44.4873 188.183 46.0853 188.183 47.8085C188.183 49.5872 187.905 51.2686 187.349 52.8528C186.821 54.4092 186.098 55.7154 185.181 56.7716C183.625 58.5781 181.388 59.4813 178.469 59.4813C177.274 59.4813 176.19 59.259 175.218 58.8143C174.273 58.3418 173.397 57.5358 172.591 56.3964V63.8586ZM172.55 47.8085C172.55 49.3371 172.675 50.6572 172.925 51.7689C173.175 52.8806 173.508 53.7839 173.925 54.4787C174.342 55.1735 174.87 55.7154 175.509 56.1045C176.176 56.4936 176.941 56.6882 177.802 56.6882C178.664 56.6882 179.359 56.5075 179.887 56.1462C180.443 55.7849 180.887 55.3124 181.221 54.7288C181.638 54.0062 181.957 53.0751 182.18 51.9357C182.43 50.7962 182.555 49.5594 182.555 48.2254C182.555 46.8357 182.43 45.5295 182.18 44.3066C181.93 43.0559 181.596 42.0554 181.179 41.305C180.762 40.5824 180.248 40.0821 179.637 39.8042C179.025 39.5263 178.33 39.3873 177.552 39.3873C176.691 39.3873 175.968 39.5402 175.384 39.8459C174.801 40.1516 174.3 40.638 173.884 41.305C173.494 41.9442 173.175 42.8058 172.925 43.8897C172.675 44.9736 172.55 46.2799 172.55 47.8085Z" fill="#83C0B9"/>
</svg>
